<svg width="192" height="49" viewBox="0 0 192 49" fill="none" xmlns="http://www.w3.org/2000/svg">
<g clip-path="url(#clip0_2477_1204)">
<path d="M45.3633 29.7248V10.9121H53.8015C55.9681 10.9121 57.6348 11.3466 58.7996 12.2155C59.9644 13.0844 60.5468 14.2717 60.5468 15.7754C60.5468 16.796 60.3183 17.6556 59.8614 18.3559C59.4045 19.0544 58.7902 19.5919 58.0206 19.9683C57.2509 20.3447 56.4176 20.532 55.5206 20.532L56.0037 19.7267C57.0786 19.7267 58.0281 19.914 58.852 20.2904C59.676 20.6668 60.3296 21.2174 60.8146 21.9439C61.2977 22.6705 61.5412 23.5694 61.5412 24.6443C61.5412 26.2567 60.9363 27.5057 59.7266 28.3934C58.5168 29.281 56.721 29.723 54.3389 29.723H45.3633V29.7248ZM48.0505 27.5469H54.2322C55.7191 27.5469 56.8558 27.296 57.6442 26.7941C58.4326 26.2923 58.8258 25.5039 58.8258 24.429C58.8258 23.3541 58.4326 22.5395 57.6442 22.0376C56.8558 21.5357 55.7172 21.2848 54.2322 21.2848H47.809V19.1087H53.5599C54.9213 19.1087 55.9794 18.8578 56.7303 18.3559C57.4831 17.8541 57.8595 17.1012 57.8595 16.0994C57.8595 15.0975 57.4831 14.3447 56.7303 13.8428C55.9775 13.3409 54.9213 13.09 53.5599 13.09H48.0505V27.5469Z" fill="white"/>
<path d="M65.3296 29.7247V9.78467H67.9101V29.7247H65.3296Z" fill="white"/>
<path d="M78.9288 29.8858C77.5131 29.8858 76.2453 29.5731 75.1255 28.9458C74.0056 28.3184 73.1236 27.4551 72.4794 26.3521C71.8352 25.251 71.5112 24.0001 71.5112 22.6031C71.5112 21.2061 71.8333 19.9383 72.4794 18.854C73.1236 17.7697 74.0019 16.9158 75.1124 16.2885C76.2228 15.6611 77.4944 15.3484 78.9288 15.3484C80.3633 15.3484 81.6124 15.6574 82.7322 16.2754C83.8521 16.8933 84.7303 17.7491 85.3652 18.8409C86 19.9345 86.3183 21.1873 86.3183 22.6031C86.3183 24.0188 86 25.2735 85.3652 26.3652C84.7285 27.4589 83.8502 28.3184 82.7322 28.9458C81.6124 29.5731 80.3446 29.8858 78.9288 29.8858ZM78.9288 27.6274C79.8427 27.6274 80.6629 27.4214 81.3876 27.0094C82.1124 26.5975 82.6816 26.0113 83.0936 25.2491C83.5056 24.487 83.7116 23.6049 83.7116 22.6012C83.7116 21.5975 83.5056 20.6986 83.0936 19.9551C82.6816 19.2117 82.1124 18.6349 81.3876 18.221C80.6629 17.8091 79.8427 17.6031 78.9288 17.6031C78.015 17.6031 77.2004 17.8091 76.4831 18.221C75.7659 18.633 75.1929 19.2117 74.764 19.9551C74.3333 20.6986 74.1198 21.5806 74.1198 22.6012C74.1198 23.6218 74.3352 24.487 74.764 25.2491C75.1947 26.0113 75.7678 26.5975 76.4831 27.0094C77.2004 27.4214 78.015 27.6274 78.9288 27.6274Z" fill="white"/>
<path d="M96.0995 29.8858C94.6481 29.8858 93.3541 29.5731 92.2156 28.9458C91.077 28.3184 90.1875 27.4589 89.5414 26.3652C88.8972 25.2735 88.5732 24.0188 88.5732 22.6031C88.5732 21.1873 88.8953 19.9345 89.5414 18.8409C90.1856 17.7491 91.077 16.8933 92.2156 16.2754C93.3523 15.6574 94.6481 15.3484 96.0995 15.3484C97.3897 15.3484 98.5395 15.6031 99.5526 16.1143C100.564 16.6255 101.349 17.3821 101.905 18.3858L99.9422 19.648C99.4759 18.9495 98.9084 18.4345 98.2362 18.1031C97.5639 17.7716 96.8429 17.6049 96.0732 17.6049C95.1407 17.6049 94.3092 17.8109 93.5732 18.2229C92.8392 18.6349 92.2568 19.2136 91.8261 19.957C91.3953 20.7004 91.1819 21.5825 91.1819 22.6031C91.1819 23.6237 91.3972 24.5113 91.8261 25.2641C92.2568 26.0169 92.8373 26.5993 93.5732 27.0113C94.3073 27.4233 95.1407 27.6293 96.0732 27.6293C96.8429 27.6293 97.5639 27.4645 98.2362 27.133C98.9084 26.8016 99.4759 26.2866 99.9422 25.5881L101.905 26.824C101.349 27.8091 100.566 28.5656 99.5526 29.0956C98.5395 29.6237 97.3897 29.8877 96.0995 29.8877V29.8858Z" fill="white"/>
<path d="M105.049 29.7247V9.78467H107.629V29.7247H105.049ZM107.144 26.2847L107.199 22.9794L115.395 15.4813H118.513L112.225 21.6611L110.828 22.8427L107.146 26.2828L107.144 26.2847ZM115.933 29.7247L110.343 22.7922L112.009 20.7229L119.103 29.7247H115.933Z" fill="white"/>
<path d="M127.219 29.8858C125.768 29.8858 124.474 29.5731 123.335 28.9458C122.197 28.3184 121.307 27.4589 120.661 26.3652C120.017 25.2735 119.693 24.0188 119.693 22.6031C119.693 21.1873 120.015 19.9345 120.661 18.8409C121.305 17.7491 122.197 16.8933 123.335 16.2754C124.472 15.6574 125.768 15.3484 127.219 15.3484C128.509 15.3484 129.659 15.6031 130.672 16.1143C131.684 16.6255 132.468 17.3821 133.024 18.3858L131.062 19.648C130.595 18.9495 130.028 18.4345 129.356 18.1031C128.684 17.7716 127.963 17.6049 127.193 17.6049C126.26 17.6049 125.429 17.8109 124.693 18.2229C123.959 18.6349 123.376 19.2136 122.946 19.957C122.515 20.7004 122.301 21.5825 122.301 22.6031C122.301 23.6237 122.517 24.5113 122.946 25.2641C123.376 26.0169 123.957 26.5993 124.693 27.0113C125.427 27.4233 126.26 27.6293 127.193 27.6293C127.963 27.6293 128.684 27.4645 129.356 27.133C130.028 26.8016 130.595 26.2866 131.062 25.5881L133.024 26.824C132.468 27.8091 131.685 28.5656 130.672 29.0956C129.659 29.6237 128.509 29.8877 127.219 29.8877V29.8858Z" fill="white"/>
<path d="M143.773 15.3465C144.938 15.3465 145.964 15.5712 146.85 16.0188C147.738 16.4663 148.431 17.148 148.932 18.0618C149.434 18.9757 149.685 20.1311 149.685 21.5281V29.7247H147.105V21.824C147.105 20.4438 146.77 19.4045 146.097 18.706C145.425 18.0075 144.481 17.6573 143.262 17.6573C142.348 17.6573 141.55 17.8371 140.871 18.1948C140.189 18.5543 139.665 19.0824 139.3 19.7809C138.932 20.4794 138.749 21.3483 138.749 22.3877V29.7247H136.168V9.78467H138.749V19.324L138.238 18.3034C138.704 17.3727 139.419 16.6461 140.388 16.1274C141.356 15.6086 142.483 15.3483 143.773 15.3483V15.3465Z" fill="white"/>
<path d="M158.635 29.8858C157.577 29.8858 156.65 29.7061 155.854 29.3484C155.056 28.9907 154.444 28.4926 154.013 27.8578C153.583 27.2229 153.369 26.5001 153.369 25.6948C153.369 24.8896 153.553 24.2267 153.92 23.5993C154.287 22.972 154.888 22.4701 155.719 22.0937C156.553 21.7173 157.676 21.53 159.092 21.53H163.607V23.384H159.201C157.91 23.384 157.041 23.5993 156.594 24.0282C156.146 24.4589 155.922 24.9776 155.922 25.5862C155.922 26.2847 156.199 26.8446 156.755 27.266C157.309 27.6873 158.081 27.8971 159.066 27.8971C160.051 27.8971 160.88 27.6817 161.605 27.2529C162.332 26.8222 162.854 26.1967 163.178 25.3727L163.689 27.1461C163.349 27.9888 162.749 28.6555 161.89 29.148C161.03 29.6405 159.946 29.8877 158.639 29.8877L158.635 29.8858ZM163.309 29.7248V26.7154L163.174 26.1518V21.0188C163.174 19.927 162.856 19.0787 162.221 18.4795C161.584 17.8802 160.631 17.5787 159.36 17.5787C158.517 17.5787 157.693 17.7173 156.888 17.9945C156.083 18.2716 155.401 18.6443 154.845 19.1106L153.77 17.1761C154.504 16.5843 155.386 16.133 156.416 15.8184C157.446 15.5057 158.526 15.3484 159.654 15.3484C161.607 15.3484 163.111 15.824 164.169 16.7735C165.225 17.7229 165.755 19.1742 165.755 21.1274V29.7267H163.309V29.7248Z" fill="white"/>
<path d="M171.828 12.7398C171.326 12.7398 170.91 12.5787 170.579 12.2566C170.247 11.9345 170.083 11.5394 170.083 11.075C170.083 10.6105 170.247 10.1873 170.579 9.86523C170.91 9.54313 171.326 9.38208 171.828 9.38208C172.33 9.38208 172.745 9.53938 173.077 9.85212C173.408 10.1667 173.573 10.5562 173.573 11.0207C173.573 11.4851 173.412 11.912 173.09 12.2435C172.768 12.575 172.347 12.7398 171.828 12.7398ZM170.539 29.7248V15.4813H173.12V29.7248H170.539Z" fill="white"/>
<path d="M185.641 15.3464C186.805 15.3464 187.832 15.5712 188.717 16.0187C189.605 16.4663 190.298 17.1479 190.8 18.0618C191.302 18.9756 191.552 20.1311 191.552 21.5281V29.7247H188.972V21.824C188.972 20.4438 188.637 19.4045 187.964 18.706C187.292 18.0075 186.348 17.6573 185.129 17.6573C184.215 17.6573 183.418 17.8371 182.738 18.1948C182.056 18.5543 181.532 19.0824 181.167 19.7809C180.8 20.4794 180.616 21.3483 180.616 22.3876V29.7247H178.036V15.4813H180.508V19.324L180.105 18.3034C180.571 17.3727 181.287 16.6461 182.255 16.1273C183.223 15.6086 184.35 15.3483 185.641 15.3483V15.3464Z" fill="white"/>
<path d="M45.0601 48.3822L51.0807 35.2942H52.0338L58.0544 48.3822H57.0263L51.3428 35.8916H51.7548L46.09 48.3822H45.0619H45.0601ZM47.2661 44.6987L47.5844 43.8953H55.4177L55.7361 44.6987H47.2661Z" fill="white"/>
<path d="M63.7942 48.457C62.8841 48.457 62.0638 48.2491 61.3354 47.8315C60.6069 47.4139 60.0301 46.8315 59.605 46.0825C59.1818 45.3353 58.9702 44.4739 58.9702 43.502C58.9702 42.53 59.1818 41.6536 59.605 40.9121C60.0283 40.1705 60.605 39.5918 61.3354 39.1724C62.0638 38.7548 62.8841 38.5469 63.7942 38.5469C64.6537 38.5469 65.4309 38.7473 66.1219 39.1461C66.8129 39.545 67.3616 40.1124 67.768 40.8484C68.1725 41.5843 68.3766 42.4682 68.3766 43.5038C68.3766 44.5394 68.1762 45.3915 67.7773 46.1405C67.3785 46.8877 66.8335 47.4626 66.1406 47.8615C65.4496 48.2604 64.6668 48.4608 63.7942 48.4608V48.457ZM63.8504 47.6162C64.5976 47.6162 65.268 47.4458 65.8597 47.1012C66.4515 46.7585 66.9197 46.2754 67.2623 45.6518C67.605 45.0282 67.7773 44.3109 67.7773 43.502C67.7773 42.693 67.605 41.9589 67.2623 41.3428C66.9197 40.7267 66.4515 40.2454 65.8597 39.9027C65.268 39.56 64.5976 39.3877 63.8504 39.3877C63.1032 39.3877 62.4328 39.56 61.841 39.9027C61.2492 40.2454 60.7811 40.7248 60.4384 41.3428C60.0957 41.9589 59.9234 42.6799 59.9234 43.502C59.9234 44.324 60.0938 45.0282 60.4384 45.6518C60.7811 46.2754 61.2492 46.7585 61.841 47.1012C62.4328 47.4439 63.1032 47.6162 63.8504 47.6162ZM67.7961 48.3821V45.1855L67.9646 43.4832L67.7773 41.781V34.5076H68.7118V48.3802H67.7961V48.3821Z" fill="white"/>
<path d="M75.1257 48.3821L70.7324 38.6218H71.7231L75.8373 47.8578H75.3879L79.5395 38.6218H80.4927L76.0807 48.3821H75.1276H75.1257Z" fill="white"/>
<path d="M84.867 48.4571C84.1442 48.4571 83.5168 48.3428 82.9888 48.1106C82.4588 47.8803 82.0543 47.5526 81.7734 47.1294C81.4925 46.7061 81.3521 46.2192 81.3521 45.6706C81.3521 45.1724 81.4663 44.7192 81.6985 44.3147C81.9288 43.9103 82.3127 43.5788 82.8483 43.3241C83.3839 43.0694 84.1011 42.9402 84.9981 42.9402H88.588V43.6687H85.0168C84.0075 43.6687 83.2996 43.8559 82.8951 44.2305C82.4906 44.605 82.2884 45.0713 82.2884 45.6331C82.2884 46.2567 82.5243 46.7548 82.9981 47.1294C83.4719 47.5039 84.1386 47.6911 84.9981 47.6911C85.8577 47.6911 86.515 47.5039 87.0824 47.1294C87.6498 46.7548 88.0693 46.2136 88.3446 45.502L88.6067 46.1368C88.3446 46.8466 87.8989 47.4121 87.2696 47.8297C86.6404 48.2473 85.8389 48.4552 84.867 48.4552V48.4571ZM88.382 48.3822V46.1574L88.3446 45.8204V42.1556C88.3446 41.2455 88.0992 40.5544 87.6067 40.0807C87.1142 39.6069 86.3951 39.3709 85.4476 39.3709C84.7753 39.3709 84.1479 39.487 83.5693 39.7174C82.9888 39.9477 82.4944 40.2436 82.0824 40.605L81.6142 39.9327C82.1011 39.4964 82.6854 39.1574 83.3726 38.914C84.058 38.6706 84.7753 38.5488 85.5225 38.5488C86.7322 38.5488 87.661 38.8541 88.309 39.4646C88.9569 40.075 89.2809 40.9852 89.2809 42.1949V48.384H88.3839L88.382 48.3822Z" fill="white"/>
<path d="M97.8992 38.5469C98.697 38.5469 99.3917 38.7004 99.9835 39.0057C100.575 39.3109 101.036 39.7716 101.367 40.3896C101.697 41.0057 101.864 41.7697 101.864 42.6798V48.3821H100.929V42.7547C100.929 41.6574 100.652 40.8222 100.098 40.2491C99.5434 39.6761 98.7663 39.3896 97.77 39.3896C97.0097 39.3896 96.3487 39.545 95.7887 39.8577C95.2269 40.1686 94.8 40.6049 94.5078 41.1667C94.2157 41.7285 94.0678 42.4008 94.0678 43.1855V48.384H93.1333V38.6237H94.0303V41.3353L93.8992 41.0356C94.1988 40.2622 94.6914 39.6555 95.3767 39.2117C96.0621 38.7697 96.903 38.5487 97.9011 38.5487L97.8992 38.5469Z" fill="white"/>
<path d="M109.584 48.457C108.637 48.457 107.792 48.2454 107.051 47.8222C106.309 47.3989 105.723 46.8128 105.292 46.0637C104.861 45.3147 104.648 44.4626 104.648 43.5019C104.648 42.5413 104.863 41.6686 105.292 40.9214C105.723 40.1742 106.307 39.5899 107.051 39.1723C107.792 38.7547 108.637 38.5469 109.584 38.5469C110.369 38.5469 111.082 38.6967 111.725 38.9963C112.367 39.2959 112.888 39.7435 113.287 40.3428L112.596 40.8484C112.247 40.3502 111.811 39.9813 111.287 39.7454C110.762 39.5094 110.195 39.3896 109.584 39.3896C108.824 39.3896 108.14 39.5619 107.537 39.9046C106.933 40.2472 106.459 40.7267 106.116 41.3446C105.773 41.9607 105.601 42.6817 105.601 43.5038C105.601 44.3259 105.772 45.0469 106.116 45.663C106.459 46.2791 106.933 46.7604 107.537 47.1031C108.142 47.4458 108.824 47.618 109.584 47.618C110.195 47.618 110.762 47.5001 111.287 47.2622C111.811 47.0263 112.245 46.6574 112.596 46.1592L113.287 46.6649C112.888 47.2641 112.367 47.7117 111.725 48.0113C111.082 48.3109 110.369 48.4607 109.584 48.4607V48.457Z" fill="white"/>
<path d="M119.888 48.457C118.903 48.457 118.034 48.2454 117.279 47.8222C116.525 47.3989 115.933 46.8128 115.502 46.0637C115.071 45.3147 114.858 44.4626 114.858 43.5019C114.858 42.5413 115.06 41.6723 115.465 40.9308C115.869 40.1892 116.427 39.6068 117.139 39.1817C117.849 38.7585 118.646 38.5469 119.532 38.5469C120.418 38.5469 121.212 38.7529 121.916 39.163C122.62 39.575 123.174 40.1517 123.581 40.8933C123.985 41.6349 124.189 42.4926 124.189 43.4645C124.189 43.5019 124.186 43.5431 124.18 43.5862C124.174 43.6293 124.171 43.6761 124.171 43.7267H115.551V42.9982H123.665L123.29 43.354C123.304 42.5937 123.144 41.912 122.813 41.3072C122.483 40.7023 122.038 40.2285 121.476 39.8858C120.914 39.5431 120.266 39.3708 119.532 39.3708C118.798 39.3708 118.163 39.5431 117.598 39.8858C117.03 40.2285 116.585 40.7023 116.261 41.3072C115.937 41.912 115.774 42.6012 115.774 43.3727V43.5413C115.774 44.339 115.952 45.0469 116.307 45.663C116.663 46.2791 117.152 46.7604 117.776 47.1031C118.399 47.4458 119.109 47.618 119.907 47.618C120.53 47.618 121.113 47.5057 121.656 47.281C122.199 47.0562 122.656 46.7135 123.03 46.2529L123.573 46.869C123.15 47.3933 122.616 47.7884 121.974 48.0562C121.332 48.324 120.637 48.4589 119.89 48.4589L119.888 48.457Z" fill="white"/>
<path d="M137.725 48.4756C136.753 48.4756 135.852 48.3108 135.023 47.9794C134.193 47.6498 133.474 47.1854 132.863 46.5861C132.253 45.9869 131.779 45.2865 131.442 44.4831C131.105 43.6798 130.937 42.7977 130.937 41.8371C130.937 40.8764 131.105 39.9962 131.442 39.191C131.779 38.3876 132.255 37.6854 132.873 37.088C133.489 36.4887 134.21 36.0262 135.032 35.6947C135.854 35.3652 136.753 35.1985 137.725 35.1985C138.648 35.1985 139.511 35.3483 140.315 35.6479C141.118 35.9475 141.807 36.4026 142.38 37.0131L141.783 37.6292C141.221 37.0805 140.601 36.6854 139.923 36.4419C139.244 36.1985 138.525 36.0768 137.764 36.0768C136.929 36.0768 136.154 36.221 135.437 36.5075C134.719 36.794 134.096 37.1985 133.568 37.7228C133.038 38.2472 132.626 38.8577 132.334 39.5562C132.041 40.2547 131.893 41.015 131.893 41.8371C131.893 42.6592 132.04 43.4195 132.334 44.118C132.626 44.8165 133.038 45.427 133.568 45.9513C134.098 46.4738 134.721 46.8801 135.437 47.1666C136.154 47.4532 136.929 47.5974 137.764 47.5974C138.525 47.5974 139.244 47.4756 139.923 47.2322C140.603 46.9887 141.223 46.588 141.783 46.0262L142.38 46.6423C141.807 47.2528 141.118 47.7116 140.315 48.0168C139.511 48.3221 138.648 48.4756 137.725 48.4756Z" fill="white"/>
<path d="M148.794 48.457C147.809 48.457 146.94 48.2454 146.186 47.8222C145.431 47.3989 144.839 46.8128 144.408 46.0637C143.978 45.3147 143.764 44.4626 143.764 43.5019C143.764 42.5413 143.966 41.6723 144.371 40.9308C144.775 40.1892 145.333 39.6068 146.045 39.1817C146.755 38.7585 147.553 38.5469 148.438 38.5469C149.324 38.5469 150.118 38.7529 150.822 39.163C151.526 39.575 152.081 40.1517 152.487 40.8933C152.892 41.6349 153.096 42.4926 153.096 43.4645C153.096 43.5019 153.092 43.5431 153.086 43.5862C153.081 43.6293 153.077 43.6761 153.077 43.7267H144.457V42.9982H152.571L152.197 43.354C152.21 42.5937 152.051 41.912 151.719 41.3072C151.39 40.7023 150.944 40.2285 150.382 39.8858C149.82 39.5431 149.172 39.3708 148.438 39.3708C147.704 39.3708 147.069 39.5431 146.504 39.8858C145.936 40.2285 145.491 40.7023 145.167 41.3072C144.843 41.912 144.68 42.6012 144.68 43.3727V43.5413C144.68 44.339 144.858 45.0469 145.214 45.663C145.569 46.2791 146.058 46.7604 146.682 47.1031C147.305 47.4458 148.015 47.618 148.813 47.618C149.436 47.618 150.019 47.5057 150.562 47.281C151.105 47.0562 151.562 46.7135 151.936 46.2529L152.48 46.869C152.056 47.3933 151.523 47.7884 150.88 48.0562C150.238 48.324 149.543 48.4589 148.796 48.4589L148.794 48.457Z" fill="white"/>
<path d="M160.759 38.5469C161.556 38.5469 162.251 38.7004 162.843 39.0057C163.435 39.3109 163.895 39.7716 164.227 40.3896C164.556 41.0057 164.723 41.7697 164.723 42.6798V48.3821H163.789V42.7547C163.789 41.6574 163.511 40.8222 162.957 40.2491C162.403 39.6761 161.626 39.3896 160.629 39.3896C159.869 39.3896 159.208 39.545 158.648 39.8577C158.086 40.1686 157.659 40.6049 157.367 41.1667C157.075 41.7285 156.927 42.4008 156.927 43.1855V48.384H155.993V38.6237H156.89V41.3353L156.759 41.0356C157.058 40.2622 157.551 39.6555 158.236 39.2117C158.922 38.7697 159.762 38.5487 160.76 38.5487L160.759 38.5469Z" fill="white"/>
<path d="M166.966 39.4253V38.6219H172.8V39.4253H166.966ZM171.418 48.4571C170.558 48.4571 169.901 48.2211 169.446 47.7474C168.991 47.2736 168.764 46.6256 168.764 45.8035V36.4927H169.699V45.7099C169.699 46.3335 169.854 46.8129 170.167 47.15C170.478 47.4871 170.927 47.6556 171.513 47.6556C172.099 47.6556 172.629 47.4758 173.028 47.1125L173.421 47.7661C173.172 48.0039 172.869 48.1781 172.515 48.2904C172.159 48.4028 171.796 48.459 171.421 48.459L171.418 48.4571Z" fill="white"/>
<path d="M179.626 48.457C178.641 48.457 177.772 48.2454 177.017 47.8222C176.262 47.3989 175.671 46.8128 175.24 46.0637C174.809 45.3147 174.596 44.4626 174.596 43.5019C174.596 42.5413 174.798 41.6723 175.202 40.9308C175.607 40.1892 176.165 39.6068 176.877 39.1817C177.586 38.7585 178.384 38.5469 179.27 38.5469C180.156 38.5469 180.95 38.7529 181.654 39.163C182.358 39.575 182.912 40.1517 183.319 40.8933C183.723 41.6349 183.927 42.4926 183.927 43.4645C183.927 43.5019 183.923 43.5431 183.918 43.5862C183.912 43.6293 183.908 43.6761 183.908 43.7267H175.289V42.9982H183.403L183.028 43.354C183.041 42.5937 182.882 41.912 182.551 41.3072C182.221 40.7023 181.775 40.2285 181.214 39.8858C180.652 39.5431 180.004 39.3708 179.27 39.3708C178.536 39.3708 177.901 39.5431 177.335 39.8858C176.768 40.2285 176.322 40.7023 175.998 41.3072C175.674 41.912 175.511 42.6012 175.511 43.3727V43.5413C175.511 44.339 175.689 45.0469 176.045 45.663C176.401 46.2791 176.89 46.7604 177.513 47.1031C178.137 47.4458 178.847 47.618 179.644 47.618C180.268 47.618 180.85 47.5057 181.393 47.281C181.937 47.0562 182.393 46.7135 182.768 46.2529L183.311 46.869C182.888 47.3933 182.354 47.7884 181.712 48.0562C181.069 48.324 180.375 48.4589 179.628 48.4589L179.626 48.457Z" fill="white"/>
<path d="M186.824 48.3821V38.6218H187.721V41.2959L187.628 40.9963C187.901 40.2117 188.364 39.6068 189.011 39.1817C189.659 38.7585 190.47 38.5469 191.442 38.5469V39.4626C191.405 39.4626 191.367 39.4589 191.33 39.4532C191.292 39.4476 191.255 39.4439 191.217 39.4439C190.133 39.4439 189.285 39.7828 188.674 40.4626C188.064 41.1424 187.759 42.0862 187.759 43.2959V48.3821H186.824Z" fill="white"/>
<path d="M0 9.12924V30.4233C0 31.3371 0.7397 32.0768 1.65356 32.0768H9.40075C10.3146 32.0768 11.0543 31.3371 11.0543 30.4233V21.0225H20.0206C20.9345 21.0225 21.6742 20.2828 21.6742 19.3689V11.8296C21.6742 10.9158 20.9345 10.1761 20.0206 10.1761H10.8371V1.65734C10.8371 0.207897 9.10674 -0.539294 8.05056 0.453215L0.807116 7.26033C0.292135 7.74535 0 8.42138 0 9.12924Z" fill="url(#paint0_linear_2477_1204)"/>
<path d="M24.365 23.8859V34.605H13.3968C11.983 34.605 10.8369 35.751 10.8369 37.1649V46.4402C10.8369 47.854 11.983 49.0001 13.3968 49.0001H17.0092C21.7227 49.0001 26.2452 47.1405 29.5953 43.8278L34.6796 38.7997C37.0317 36.4739 38.3556 33.3035 38.3556 29.9945V23.8859C38.3556 22.472 37.2096 21.3259 35.7957 21.3259H26.9249C25.5111 21.3259 24.365 22.472 24.365 23.8859Z" fill="url(#paint1_linear_2477_1204)"/>
<path d="M24.365 34.6067V38.1404C24.365 44.1385 19.5017 49.0018 13.5036 49.0018H13.4025C11.9849 49.0018 10.8369 47.8539 10.8369 46.4363V37.1741C10.8369 35.7565 11.9849 34.6086 13.4025 34.6086H24.365V34.6067Z" fill="url(#paint2_linear_2477_1204)"/>
</g>
<defs>
<linearGradient id="paint0_linear_2477_1204" x1="0" y1="16.0375" x2="21.6723" y2="16.0375" gradientUnits="userSpaceOnUse">
<stop offset="0.04" stop-color="#4A6297"/>
<stop offset="1" stop-color="#74A2CF"/>
</linearGradient>
<linearGradient id="paint1_linear_2477_1204" x1="10.8369" y1="35.1619" x2="38.3533" y2="35.1619" gradientUnits="userSpaceOnUse">
<stop offset="0.04" stop-color="#4A6297"/>
<stop offset="1" stop-color="#74A2CF"/>
</linearGradient>
<linearGradient id="paint2_linear_2477_1204" x1="10.8369" y1="41.8037" x2="24.3638" y2="41.8037" gradientUnits="userSpaceOnUse">
<stop offset="0.04" stop-color="#4A6297"/>
<stop offset="1" stop-color="#74A2CF"/>
</linearGradient>
<clipPath id="clip0_2477_1204">
<rect width="191.552" height="49" fill="white"/>
</clipPath>
</defs>
</svg>
