<svg width="145" height="145" viewBox="0 0 145 145" fill="none" xmlns="http://www.w3.org/2000/svg">
<g filter="url(#filter0_b_1_9)">
<circle cx="72.5" cy="72.5" r="72.5" fill="url(#paint0_linear_1_9)" fill-opacity="0.2"/>
<circle cx="72.5" cy="72.5" r="72" stroke="url(#paint1_linear_1_9)"/>
</g>
<path d="M29.008 83L24.048 71.8H25.328L29.968 82.344H29.264L33.936 71.8H35.136L30.176 83H29.008ZM39.4489 83.08C38.5742 83.08 37.8062 82.8987 37.1449 82.536C36.4835 82.1627 35.9662 81.656 35.5929 81.016C35.2195 80.3653 35.0329 79.624 35.0329 78.792C35.0329 77.96 35.2089 77.224 35.5609 76.584C35.9235 75.944 36.4142 75.4427 37.0329 75.08C37.6622 74.7067 38.3662 74.52 39.1449 74.52C39.9342 74.52 40.6329 74.7013 41.2409 75.064C41.8595 75.416 42.3449 75.9173 42.6969 76.568C43.0489 77.208 43.2249 77.9493 43.2249 78.792C43.2249 78.8453 43.2195 78.904 43.2089 78.968C43.2089 79.0213 43.2089 79.08 43.2089 79.144H35.8969V78.296H42.6009L42.1529 78.632C42.1529 78.024 42.0195 77.4853 41.7529 77.016C41.4969 76.536 41.1449 76.1627 40.6969 75.896C40.2489 75.6293 39.7315 75.496 39.1449 75.496C38.5689 75.496 38.0515 75.6293 37.5929 75.896C37.1342 76.1627 36.7769 76.536 36.5209 77.016C36.2649 77.496 36.1369 78.0453 36.1369 78.664V78.84C36.1369 79.48 36.2755 80.0453 36.5529 80.536C36.8409 81.016 37.2355 81.3947 37.7369 81.672C38.2489 81.9387 38.8302 82.072 39.4809 82.072C39.9929 82.072 40.4675 81.9813 40.9049 81.8C41.3529 81.6187 41.7369 81.3413 42.0569 80.968L42.6969 81.704C42.3235 82.152 41.8542 82.4933 41.2889 82.728C40.7342 82.9627 40.1209 83.08 39.4489 83.08ZM45.5371 83V74.6H46.6251V76.888L46.5131 76.488C46.7478 75.848 47.1425 75.3627 47.6971 75.032C48.2518 74.6907 48.9398 74.52 49.7611 74.52V75.624C49.7185 75.624 49.6758 75.624 49.6331 75.624C49.5905 75.6133 49.5478 75.608 49.5051 75.608C48.6198 75.608 47.9265 75.88 47.4251 76.424C46.9238 76.9573 46.6731 77.72 46.6731 78.712V83H45.5371ZM60.4345 74.52C61.1172 74.52 61.7145 74.6533 62.2265 74.92C62.7492 75.176 63.1545 75.5707 63.4425 76.104C63.7412 76.6373 63.8905 77.3093 63.8905 78.12V83H62.7545V78.232C62.7545 77.3467 62.5305 76.68 62.0825 76.232C61.6452 75.7733 61.0265 75.544 60.2265 75.544C59.6292 75.544 59.1065 75.6667 58.6585 75.912C58.2212 76.1467 57.8798 76.4933 57.6345 76.952C57.3998 77.4 57.2825 77.944 57.2825 78.584V83H56.1465V74.6H57.2345V76.904L57.0585 76.472C57.3252 75.864 57.7518 75.3893 58.3385 75.048C58.9252 74.696 59.6238 74.52 60.4345 74.52ZM70.431 83.08C69.7163 83.08 69.0923 82.9467 68.559 82.68C68.0257 82.4133 67.6097 82.0133 67.311 81.48C67.023 80.9467 66.879 80.28 66.879 79.48V74.6H68.015V79.352C68.015 80.248 68.2337 80.9253 68.671 81.384C69.119 81.832 69.743 82.056 70.543 82.056C71.1297 82.056 71.6363 81.9387 72.063 81.704C72.5003 81.4587 72.831 81.1067 73.055 80.648C73.2897 80.1893 73.407 79.64 73.407 79V74.6H74.543V83H73.455V80.696L73.631 81.112C73.3643 81.7307 72.9483 82.216 72.383 82.568C71.8283 82.9093 71.1777 83.08 70.431 83.08ZM81.277 83.08C80.4023 83.08 79.6343 82.8987 78.973 82.536C78.3117 82.1627 77.7943 81.656 77.421 81.016C77.0477 80.3653 76.861 79.624 76.861 78.792C76.861 77.96 77.037 77.224 77.389 76.584C77.7517 75.944 78.2423 75.4427 78.861 75.08C79.4903 74.7067 80.1943 74.52 80.973 74.52C81.7623 74.52 82.461 74.7013 83.069 75.064C83.6877 75.416 84.173 75.9173 84.525 76.568C84.877 77.208 85.053 77.9493 85.053 78.792C85.053 78.8453 85.0477 78.904 85.037 78.968C85.037 79.0213 85.037 79.08 85.037 79.144H77.725V78.296H84.429L83.981 78.632C83.981 78.024 83.8477 77.4853 83.581 77.016C83.325 76.536 82.973 76.1627 82.525 75.896C82.077 75.6293 81.5597 75.496 80.973 75.496C80.397 75.496 79.8797 75.6293 79.421 75.896C78.9623 76.1627 78.605 76.536 78.349 77.016C78.093 77.496 77.965 78.0453 77.965 78.664V78.84C77.965 79.48 78.1037 80.0453 78.381 80.536C78.669 81.016 79.0637 81.3947 79.565 81.672C80.077 81.9387 80.6583 82.072 81.309 82.072C81.821 82.072 82.2957 81.9813 82.733 81.8C83.181 81.6187 83.565 81.3413 83.885 80.968L84.525 81.704C84.1517 82.152 83.6823 82.4933 83.117 82.728C82.5623 82.9627 81.949 83.08 81.277 83.08ZM89.6213 83.08C88.9279 83.08 88.2719 82.984 87.6533 82.792C87.0346 82.5893 86.5493 82.3387 86.1973 82.04L86.7093 81.144C87.0506 81.4 87.4879 81.624 88.0213 81.816C88.5546 81.9973 89.1146 82.088 89.7013 82.088C90.5013 82.088 91.0773 81.9653 91.4293 81.72C91.7813 81.464 91.9573 81.128 91.9573 80.712C91.9573 80.4027 91.8559 80.1627 91.6533 79.992C91.4613 79.8107 91.2053 79.6773 90.8853 79.592C90.5653 79.496 90.2079 79.416 89.8133 79.352C89.4186 79.288 89.0239 79.2133 88.6293 79.128C88.2453 79.0427 87.8933 78.92 87.5733 78.76C87.2533 78.5893 86.9919 78.36 86.7893 78.072C86.5973 77.784 86.5013 77.4 86.5013 76.92C86.5013 76.4613 86.6293 76.0507 86.8853 75.688C87.1413 75.3253 87.5146 75.0427 88.0053 74.84C88.5066 74.6267 89.1146 74.52 89.8293 74.52C90.3733 74.52 90.9173 74.5947 91.4613 74.744C92.0053 74.8827 92.4533 75.0693 92.8053 75.304L92.3093 76.216C91.9359 75.96 91.5359 75.7787 91.1093 75.672C90.6826 75.5547 90.2559 75.496 89.8293 75.496C89.0719 75.496 88.5119 75.6293 88.1493 75.896C87.7973 76.152 87.6213 76.4827 87.6213 76.888C87.6213 77.208 87.7173 77.4587 87.9093 77.64C88.1119 77.8213 88.3733 77.9653 88.6933 78.072C89.0239 78.168 89.3813 78.248 89.7653 78.312C90.1599 78.376 90.5493 78.456 90.9333 78.552C91.3279 78.6373 91.6853 78.76 92.0053 78.92C92.3359 79.0693 92.5973 79.288 92.7893 79.576C92.9919 79.8533 93.0933 80.2213 93.0933 80.68C93.0933 81.1707 92.9546 81.5973 92.6773 81.96C92.4106 82.312 92.0159 82.5893 91.4933 82.792C90.9813 82.984 90.3573 83.08 89.6213 83.08ZM97.8338 83.08C97.0444 83.08 96.4364 82.8667 96.0098 82.44C95.5831 82.0133 95.3698 81.4107 95.3698 80.632V72.744H96.5058V80.568C96.5058 81.0587 96.6284 81.4373 96.8738 81.704C97.1298 81.9707 97.4924 82.104 97.9618 82.104C98.4631 82.104 98.8791 81.96 99.2098 81.672L99.6098 82.488C99.3858 82.6907 99.1138 82.84 98.7938 82.936C98.4844 83.032 98.1644 83.08 97.8338 83.08ZM93.8658 75.544V74.6H99.0658V75.544H93.8658ZM101.678 83V74.6H102.766V76.888L102.654 76.488C102.888 75.848 103.283 75.3627 103.838 75.032C104.392 74.6907 105.08 74.52 105.902 74.52V75.624C105.859 75.624 105.816 75.624 105.774 75.624C105.731 75.6133 105.688 75.608 105.646 75.608C104.76 75.608 104.067 75.88 103.566 76.424C103.064 76.9573 102.814 77.72 102.814 78.712V83H101.678ZM112.614 83V81.144L112.566 80.84V77.736C112.566 77.0213 112.363 76.472 111.958 76.088C111.563 75.704 110.971 75.512 110.182 75.512C109.638 75.512 109.12 75.6027 108.63 75.784C108.139 75.9653 107.723 76.2053 107.382 76.504L106.87 75.656C107.296 75.2933 107.808 75.016 108.406 74.824C109.003 74.6213 109.632 74.52 110.294 74.52C111.382 74.52 112.219 74.792 112.806 75.336C113.403 75.8693 113.702 76.6853 113.702 77.784V83H112.614ZM109.718 83.08C109.088 83.08 108.539 82.9787 108.07 82.776C107.611 82.5627 107.259 82.2747 107.014 81.912C106.768 81.5387 106.646 81.112 106.646 80.632C106.646 80.1947 106.747 79.8 106.95 79.448C107.163 79.0853 107.504 78.7973 107.974 78.584C108.454 78.36 109.094 78.248 109.894 78.248H112.79V79.096H109.926C109.115 79.096 108.55 79.24 108.23 79.528C107.92 79.816 107.766 80.1733 107.766 80.6C107.766 81.08 107.952 81.464 108.326 81.752C108.699 82.04 109.222 82.184 109.894 82.184C110.534 82.184 111.083 82.04 111.542 81.752C112.011 81.4533 112.352 81.0267 112.566 80.472L112.822 81.256C112.608 81.8107 112.235 82.2533 111.702 82.584C111.179 82.9147 110.518 83.08 109.718 83.08ZM119.043 83.08C118.35 83.08 117.694 82.984 117.075 82.792C116.456 82.5893 115.971 82.3387 115.619 82.04L116.131 81.144C116.472 81.4 116.91 81.624 117.443 81.816C117.976 81.9973 118.536 82.088 119.123 82.088C119.923 82.088 120.499 81.9653 120.851 81.72C121.203 81.464 121.379 81.128 121.379 80.712C121.379 80.4027 121.278 80.1627 121.075 79.992C120.883 79.8107 120.627 79.6773 120.307 79.592C119.987 79.496 119.63 79.416 119.235 79.352C118.84 79.288 118.446 79.2133 118.051 79.128C117.667 79.0427 117.315 78.92 116.995 78.76C116.675 78.5893 116.414 78.36 116.211 78.072C116.019 77.784 115.923 77.4 115.923 76.92C115.923 76.4613 116.051 76.0507 116.307 75.688C116.563 75.3253 116.936 75.0427 117.427 74.84C117.928 74.6267 118.536 74.52 119.251 74.52C119.795 74.52 120.339 74.5947 120.883 74.744C121.427 74.8827 121.875 75.0693 122.227 75.304L121.731 76.216C121.358 75.96 120.958 75.7787 120.531 75.672C120.104 75.5547 119.678 75.496 119.251 75.496C118.494 75.496 117.934 75.6293 117.571 75.896C117.219 76.152 117.043 76.4827 117.043 76.888C117.043 77.208 117.139 77.4587 117.331 77.64C117.534 77.8213 117.795 77.9653 118.115 78.072C118.446 78.168 118.803 78.248 119.187 78.312C119.582 78.376 119.971 78.456 120.355 78.552C120.75 78.6373 121.107 78.76 121.427 78.92C121.758 79.0693 122.019 79.288 122.211 79.576C122.414 79.8533 122.515 80.2213 122.515 80.68C122.515 81.1707 122.376 81.5973 122.099 81.96C121.832 82.312 121.438 82.5893 120.915 82.792C120.403 82.984 119.779 83.08 119.043 83.08ZM27.84 107.08C27.1467 107.08 26.4907 106.984 25.872 106.792C25.2533 106.589 24.768 106.339 24.416 106.04L24.928 105.144C25.2693 105.4 25.7067 105.624 26.24 105.816C26.7733 105.997 27.3333 106.088 27.92 106.088C28.72 106.088 29.296 105.965 29.648 105.72C30 105.464 30.176 105.128 30.176 104.712C30.176 104.403 30.0747 104.163 29.872 103.992C29.68 103.811 29.424 103.677 29.104 103.592C28.784 103.496 28.4267 103.416 28.032 103.352C27.6373 103.288 27.2427 103.213 26.848 103.128C26.464 103.043 26.112 102.92 25.792 102.76C25.472 102.589 25.2107 102.36 25.008 102.072C24.816 101.784 24.72 101.4 24.72 100.92C24.72 100.461 24.848 100.051 25.104 99.688C25.36 99.3253 25.7333 99.0427 26.224 98.84C26.7253 98.6267 27.3333 98.52 28.048 98.52C28.592 98.52 29.136 98.5947 29.68 98.744C30.224 98.8827 30.672 99.0693 31.024 99.304L30.528 100.216C30.1547 99.96 29.7547 99.7787 29.328 99.672C28.9013 99.5547 28.4747 99.496 28.048 99.496C27.2907 99.496 26.7307 99.6293 26.368 99.896C26.016 100.152 25.84 100.483 25.84 100.888C25.84 101.208 25.936 101.459 26.128 101.64C26.3307 101.821 26.592 101.965 26.912 102.072C27.2427 102.168 27.6 102.248 27.984 102.312C28.3787 102.376 28.768 102.456 29.152 102.552C29.5467 102.637 29.904 102.76 30.224 102.92C30.5547 103.069 30.816 103.288 31.008 103.576C31.2107 103.853 31.312 104.221 31.312 104.68C31.312 105.171 31.1733 105.597 30.896 105.96C30.6293 106.312 30.2347 106.589 29.712 106.792C29.2 106.984 28.576 107.08 27.84 107.08ZM36.8205 107.08C36.0098 107.08 35.2792 106.899 34.6285 106.536C33.9885 106.163 33.4818 105.656 33.1085 105.016C32.7352 104.365 32.5485 103.624 32.5485 102.792C32.5485 101.949 32.7352 101.208 33.1085 100.568C33.4818 99.928 33.9885 99.4267 34.6285 99.064C35.2685 98.7013 35.9992 98.52 36.8205 98.52C37.6525 98.52 38.3885 98.7013 39.0285 99.064C39.6792 99.4267 40.1858 99.928 40.5485 100.568C40.9218 101.208 41.1085 101.949 41.1085 102.792C41.1085 103.624 40.9218 104.365 40.5485 105.016C40.1858 105.656 39.6792 106.163 39.0285 106.536C38.3778 106.899 37.6418 107.08 36.8205 107.08ZM36.8205 106.072C37.4285 106.072 37.9672 105.939 38.4365 105.672C38.9058 105.395 39.2738 105.011 39.5405 104.52C39.8178 104.019 39.9565 103.443 39.9565 102.792C39.9565 102.131 39.8178 101.555 39.5405 101.064C39.2738 100.573 38.9058 100.195 38.4365 99.928C37.9672 99.6507 37.4338 99.512 36.8365 99.512C36.2392 99.512 35.7058 99.6507 35.2365 99.928C34.7672 100.195 34.3938 100.573 34.1165 101.064C33.8392 101.555 33.7005 102.131 33.7005 102.792C33.7005 103.443 33.8392 104.019 34.1165 104.52C34.3938 105.011 34.7672 105.395 35.2365 105.672C35.7058 105.939 36.2338 106.072 36.8205 106.072ZM43.4278 107V95.128H44.5638V107H43.4278ZM51.1966 107.08C50.482 107.08 49.858 106.947 49.3246 106.68C48.7913 106.413 48.3753 106.013 48.0766 105.48C47.7886 104.947 47.6446 104.28 47.6446 103.48V98.6H48.7806V103.352C48.7806 104.248 48.9993 104.925 49.4366 105.384C49.8846 105.832 50.5086 106.056 51.3086 106.056C51.8953 106.056 52.402 105.939 52.8286 105.704C53.266 105.459 53.5966 105.107 53.8206 104.648C54.0553 104.189 54.1726 103.64 54.1726 103V98.6H55.3086V107H54.2206V104.696L54.3966 105.112C54.13 105.731 53.714 106.216 53.1486 106.568C52.594 106.909 51.9433 107.08 51.1966 107.08ZM61.9626 107.08C61.1306 107.08 60.384 106.899 59.7226 106.536C59.072 106.163 58.56 105.656 58.1866 105.016C57.8133 104.365 57.6266 103.624 57.6266 102.792C57.6266 101.949 57.8133 101.208 58.1866 100.568C58.56 99.928 59.072 99.4267 59.7226 99.064C60.384 98.7013 61.1306 98.52 61.9626 98.52C62.6773 98.52 63.3226 98.6587 63.8986 98.936C64.4746 99.2133 64.928 99.6293 65.2586 100.184L64.4106 100.76C64.1226 100.333 63.7653 100.019 63.3386 99.816C62.912 99.6133 62.448 99.512 61.9466 99.512C61.3493 99.512 60.8106 99.6507 60.3306 99.928C59.8506 100.195 59.472 100.573 59.1946 101.064C58.9173 101.555 58.7786 102.131 58.7786 102.792C58.7786 103.453 58.9173 104.029 59.1946 104.52C59.472 105.011 59.8506 105.395 60.3306 105.672C60.8106 105.939 61.3493 106.072 61.9466 106.072C62.448 106.072 62.912 105.971 63.3386 105.768C63.7653 105.565 64.1226 105.256 64.4106 104.84L65.2586 105.416C64.928 105.96 64.4746 106.376 63.8986 106.664C63.3226 106.941 62.6773 107.08 61.9626 107.08ZM67.3653 107V98.6H68.5013V107H67.3653ZM67.9413 96.744C67.7066 96.744 67.5093 96.664 67.3493 96.504C67.1893 96.344 67.1093 96.152 67.1093 95.928C67.1093 95.704 67.1893 95.5173 67.3493 95.368C67.5093 95.208 67.7066 95.128 67.9413 95.128C68.1759 95.128 68.3733 95.2027 68.5333 95.352C68.6933 95.5013 68.7733 95.688 68.7733 95.912C68.7733 96.1467 68.6933 96.344 68.5333 96.504C68.3839 96.664 68.1866 96.744 67.9413 96.744ZM75.0861 107.08C74.2755 107.08 73.5448 106.899 72.8941 106.536C72.2541 106.163 71.7475 105.656 71.3741 105.016C71.0008 104.365 70.8141 103.624 70.8141 102.792C70.8141 101.949 71.0008 101.208 71.3741 100.568C71.7475 99.928 72.2541 99.4267 72.8941 99.064C73.5341 98.7013 74.2648 98.52 75.0861 98.52C75.9181 98.52 76.6541 98.7013 77.2941 99.064C77.9448 99.4267 78.4515 99.928 78.8141 100.568C79.1875 101.208 79.3741 101.949 79.3741 102.792C79.3741 103.624 79.1875 104.365 78.8141 105.016C78.4515 105.656 77.9448 106.163 77.2941 106.536C76.6435 106.899 75.9075 107.08 75.0861 107.08ZM75.0861 106.072C75.6941 106.072 76.2328 105.939 76.7021 105.672C77.1715 105.395 77.5395 105.011 77.8061 104.52C78.0835 104.019 78.2221 103.443 78.2221 102.792C78.2221 102.131 78.0835 101.555 77.8061 101.064C77.5395 100.573 77.1715 100.195 76.7021 99.928C76.2328 99.6507 75.6995 99.512 75.1021 99.512C74.5048 99.512 73.9715 99.6507 73.5021 99.928C73.0328 100.195 72.6595 100.573 72.3821 101.064C72.1048 101.555 71.9661 102.131 71.9661 102.792C71.9661 103.443 72.1048 104.019 72.3821 104.52C72.6595 105.011 73.0328 105.395 73.5021 105.672C73.9715 105.939 74.4995 106.072 75.0861 106.072ZM85.9814 98.52C86.664 98.52 87.2614 98.6533 87.7734 98.92C88.296 99.176 88.7014 99.5707 88.9894 100.104C89.288 100.637 89.4374 101.309 89.4374 102.12V107H88.3014V102.232C88.3014 101.347 88.0774 100.68 87.6294 100.232C87.192 99.7733 86.5734 99.544 85.7734 99.544C85.176 99.544 84.6534 99.6667 84.2054 99.912C83.768 100.147 83.4267 100.493 83.1814 100.952C82.9467 101.4 82.8294 101.944 82.8294 102.584V107H81.6934V98.6H82.7814V100.904L82.6054 100.472C82.872 99.864 83.2987 99.3893 83.8854 99.048C84.472 98.696 85.1707 98.52 85.9814 98.52ZM96.0739 107.08C95.1992 107.08 94.4312 106.899 93.7699 106.536C93.1085 106.163 92.5912 105.656 92.2179 105.016C91.8445 104.365 91.6579 103.624 91.6579 102.792C91.6579 101.96 91.8339 101.224 92.1859 100.584C92.5485 99.944 93.0392 99.4427 93.6579 99.08C94.2872 98.7067 94.9912 98.52 95.7699 98.52C96.5592 98.52 97.2579 98.7013 97.8659 99.064C98.4845 99.416 98.9699 99.9173 99.3219 100.568C99.6739 101.208 99.8499 101.949 99.8499 102.792C99.8499 102.845 99.8445 102.904 99.8339 102.968C99.8339 103.021 99.8339 103.08 99.8339 103.144H92.5219V102.296H99.2259L98.7779 102.632C98.7779 102.024 98.6445 101.485 98.3779 101.016C98.1219 100.536 97.7699 100.163 97.3219 99.896C96.8739 99.6293 96.3565 99.496 95.7699 99.496C95.1939 99.496 94.6765 99.6293 94.2179 99.896C93.7592 100.163 93.4019 100.536 93.1459 101.016C92.8899 101.496 92.7619 102.045 92.7619 102.664V102.84C92.7619 103.48 92.9005 104.045 93.1779 104.536C93.4659 105.016 93.8605 105.395 94.3619 105.672C94.8739 105.939 95.4552 106.072 96.1059 106.072C96.6179 106.072 97.0925 105.981 97.5299 105.8C97.9779 105.619 98.3619 105.341 98.6819 104.968L99.3219 105.704C98.9485 106.152 98.4792 106.493 97.9139 106.728C97.3592 106.963 96.7459 107.08 96.0739 107.08ZM104.418 107.08C103.725 107.08 103.069 106.984 102.45 106.792C101.831 106.589 101.346 106.339 100.994 106.04L101.506 105.144C101.847 105.4 102.285 105.624 102.818 105.816C103.351 105.997 103.911 106.088 104.498 106.088C105.298 106.088 105.874 105.965 106.226 105.72C106.578 105.464 106.754 105.128 106.754 104.712C106.754 104.403 106.653 104.163 106.45 103.992C106.258 103.811 106.002 103.677 105.682 103.592C105.362 103.496 105.005 103.416 104.61 103.352C104.215 103.288 103.821 103.213 103.426 103.128C103.042 103.043 102.69 102.92 102.37 102.76C102.05 102.589 101.789 102.36 101.586 102.072C101.394 101.784 101.298 101.4 101.298 100.92C101.298 100.461 101.426 100.051 101.682 99.688C101.938 99.3253 102.311 99.0427 102.802 98.84C103.303 98.6267 103.911 98.52 104.626 98.52C105.17 98.52 105.714 98.5947 106.258 98.744C106.802 98.8827 107.25 99.0693 107.602 99.304L107.106 100.216C106.733 99.96 106.333 99.7787 105.906 99.672C105.479 99.5547 105.053 99.496 104.626 99.496C103.869 99.496 103.309 99.6293 102.946 99.896C102.594 100.152 102.418 100.483 102.418 100.888C102.418 101.208 102.514 101.459 102.706 101.64C102.909 101.821 103.17 101.965 103.49 102.072C103.821 102.168 104.178 102.248 104.562 102.312C104.957 102.376 105.346 102.456 105.73 102.552C106.125 102.637 106.482 102.76 106.802 102.92C107.133 103.069 107.394 103.288 107.586 103.576C107.789 103.853 107.89 104.221 107.89 104.68C107.89 105.171 107.751 105.597 107.474 105.96C107.207 106.312 106.813 106.589 106.29 106.792C105.778 106.984 105.154 107.08 104.418 107.08Z" fill="white" fill-opacity="0.88"/>
<g filter="url(#filter1_b_1_9)">
<path d="M52.6316 45.7684C52.2275 46.1725 52.2275 46.8275 52.6316 47.2316V47.2316V47.2316C53.0348 46.8272 53.0348 46.1728 52.6316 45.7684V45.7684V45.7684ZM52.6316 47.2316C51.8235 46.4235 50.5133 46.4235 49.7052 47.2316L43.6333 53.3035C43.2293 53.7075 43.2293 54.3626 43.6333 54.7667V54.7667C44.0374 55.1707 44.6925 55.1707 45.0965 54.7667L52.6316 47.2316V47.2316ZM52.6316 45.7684L45.0965 38.2333C44.6925 37.8293 44.0374 37.8293 43.6333 38.2333V38.2333C43.2293 38.6374 43.2293 39.2925 43.6333 39.6965L49.7052 45.7684C50.5133 46.5765 51.8235 46.5765 52.6316 45.7684V45.7684ZM51.9 46.5C51.9 45.9293 51.4374 45.4667 50.8667 45.4667L27.1 45.4667C26.5293 45.4667 26.0667 45.9293 26.0667 46.5V46.5C26.0667 47.0707 26.5293 47.5333 27.1 47.5333L50.8667 47.5333C51.4374 47.5333 51.9 47.0707 51.9 46.5V46.5Z" fill="url(#paint2_linear_1_9)" fill-opacity="0.2"/>
<path d="M49.3516 46.878L49.1964 47.0333L27.1 47.0333C26.8055 47.0333 26.5667 46.7946 26.5667 46.5C26.5667 46.2054 26.8055 45.9667 27.1 45.9667L49.1964 45.9667L49.3516 46.122C49.4994 46.2697 49.6607 46.3958 49.8316 46.5C49.6607 46.6043 49.4994 46.7303 49.3516 46.878ZM50.8667 44.9667L49.6106 44.9667L43.9869 39.343C43.7781 39.1342 43.7781 38.7957 43.9869 38.5869C44.1957 38.3781 44.5342 38.3781 44.743 38.5869L51.1486 44.9925C51.0572 44.9755 50.963 44.9667 50.8667 44.9667ZM50.8667 48.0333C50.963 48.0333 51.0572 48.0245 51.1486 48.0075L44.743 54.4131C44.5342 54.6219 44.1957 54.6219 43.9869 54.4131C43.7781 54.2043 43.7781 53.8658 43.9869 53.657L49.6106 48.0333L50.8667 48.0333Z" stroke="url(#paint3_linear_1_9)"/>
</g>
<defs>
<filter id="filter0_b_1_9" x="-10" y="-10" width="165" height="165" filterUnits="userSpaceOnUse" color-interpolation-filters="sRGB">
<feFlood flood-opacity="0" result="BackgroundImageFix"/>
<feGaussianBlur in="BackgroundImageFix" stdDeviation="5"/>
<feComposite in2="SourceAlpha" operator="in" result="effect1_backgroundBlur_1_9"/>
<feBlend mode="normal" in="SourceGraphic" in2="effect1_backgroundBlur_1_9" result="shape"/>
</filter>
<filter id="filter1_b_1_9" x="16.0667" y="27.9303" width="46.8674" height="37.1394" filterUnits="userSpaceOnUse" color-interpolation-filters="sRGB">
<feFlood flood-opacity="0" result="BackgroundImageFix"/>
<feGaussianBlur in="BackgroundImageFix" stdDeviation="5"/>
<feComposite in2="SourceAlpha" operator="in" result="effect1_backgroundBlur_1_9"/>
<feBlend mode="normal" in="SourceGraphic" in2="effect1_backgroundBlur_1_9" result="shape"/>
</filter>
<linearGradient id="paint0_linear_1_9" x1="40.5" y1="15" x2="116.5" y2="130" gradientUnits="userSpaceOnUse">
<stop stop-color="#D3E8FF"/>
<stop offset="1" stop-color="#8587BF" stop-opacity="0"/>
</linearGradient>
<linearGradient id="paint1_linear_1_9" x1="63.2356" y1="5.7984" x2="132.482" y2="125.615" gradientUnits="userSpaceOnUse">
<stop stop-color="#4A6297" stop-opacity="0.26"/>
<stop offset="0.320882" stop-color="#4A6297"/>
<stop offset="0.610064" stop-color="#74A2CF"/>
<stop offset="1" stop-color="#74A2CF" stop-opacity="0.13"/>
</linearGradient>
<linearGradient id="paint2_linear_1_9" x1="50.5376" y1="42.5283" x2="35.0225" y2="58.0792" gradientUnits="userSpaceOnUse">
<stop stop-color="#D3E8FF"/>
<stop offset="1" stop-color="#8587BF" stop-opacity="0"/>
</linearGradient>
<linearGradient id="paint3_linear_1_9" x1="52.2697" y1="45.3502" x2="35.2548" y2="60.2641" gradientUnits="userSpaceOnUse">
<stop stop-color="#4A6297" stop-opacity="0.26"/>
<stop offset="0.320882" stop-color="#4A6297"/>
<stop offset="0.610064" stop-color="#74A2CF"/>
<stop offset="1" stop-color="#74A2CF" stop-opacity="0.13"/>
</linearGradient>
</defs>
</svg>
