<svg width="123" height="112" viewBox="0 0 123 112" fill="none" xmlns="http://www.w3.org/2000/svg">
<circle cx="56" cy="56" r="55.5" stroke="white" stroke-opacity="0.29"/>
<g filter="url(#filter0_b_1_18)">
<circle cx="56" cy="56" r="56" fill="url(#paint0_linear_1_18)" fill-opacity="0.2"/>
<circle cx="56" cy="56" r="55.5" stroke="url(#paint1_linear_1_18)"/>
</g>
<path d="M24.008 76L19.048 64.8H20.328L24.968 75.344H24.264L28.936 64.8H30.136L25.176 76H24.008ZM34.4489 76.08C33.5742 76.08 32.8062 75.8987 32.1449 75.536C31.4835 75.1627 30.9662 74.656 30.5929 74.016C30.2195 73.3653 30.0329 72.624 30.0329 71.792C30.0329 70.96 30.2089 70.224 30.5609 69.584C30.9235 68.944 31.4142 68.4427 32.0329 68.08C32.6622 67.7067 33.3662 67.52 34.1449 67.52C34.9342 67.52 35.6329 67.7013 36.2409 68.064C36.8595 68.416 37.3449 68.9173 37.6969 69.568C38.0489 70.208 38.2249 70.9493 38.2249 71.792C38.2249 71.8453 38.2195 71.904 38.2089 71.968C38.2089 72.0213 38.2089 72.08 38.2089 72.144H30.8969V71.296H37.6009L37.1529 71.632C37.1529 71.024 37.0195 70.4853 36.7529 70.016C36.4969 69.536 36.1449 69.1627 35.6969 68.896C35.2489 68.6293 34.7315 68.496 34.1449 68.496C33.5689 68.496 33.0515 68.6293 32.5929 68.896C32.1342 69.1627 31.7769 69.536 31.5209 70.016C31.2649 70.496 31.1369 71.0453 31.1369 71.664V71.84C31.1369 72.48 31.2755 73.0453 31.5529 73.536C31.8409 74.016 32.2355 74.3947 32.7369 74.672C33.2489 74.9387 33.8302 75.072 34.4809 75.072C34.9929 75.072 35.4675 74.9813 35.9049 74.8C36.3529 74.6187 36.7369 74.3413 37.0569 73.968L37.6969 74.704C37.3235 75.152 36.8542 75.4933 36.2889 75.728C35.7342 75.9627 35.1209 76.08 34.4489 76.08ZM40.5371 76V67.6H41.6251V69.888L41.5131 69.488C41.7478 68.848 42.1425 68.3627 42.6971 68.032C43.2518 67.6907 43.9398 67.52 44.7611 67.52V68.624C44.7185 68.624 44.6758 68.624 44.6331 68.624C44.5905 68.6133 44.5478 68.608 44.5051 68.608C43.6198 68.608 42.9265 68.88 42.4251 69.424C41.9238 69.9573 41.6731 70.72 41.6731 71.712V76H40.5371ZM61.6425 67.52C62.3252 67.52 62.9172 67.6533 63.4185 67.92C63.9305 68.176 64.3252 68.5707 64.6025 69.104C64.8905 69.6373 65.0345 70.3093 65.0345 71.12V76H63.8985V71.232C63.8985 70.3467 63.6852 69.68 63.2585 69.232C62.8425 68.7733 62.2505 68.544 61.4825 68.544C60.9065 68.544 60.4052 68.6667 59.9785 68.912C59.5625 69.1467 59.2372 69.4933 59.0025 69.952C58.7785 70.4 58.6665 70.944 58.6665 71.584V76H57.5305V71.232C57.5305 70.3467 57.3172 69.68 56.8905 69.232C56.4638 68.7733 55.8665 68.544 55.0985 68.544C54.5332 68.544 54.0372 68.6667 53.6105 68.912C53.1838 69.1467 52.8532 69.4933 52.6185 69.952C52.3945 70.4 52.2825 70.944 52.2825 71.584V76H51.1465V67.6H52.2345V69.872L52.0585 69.472C52.3145 68.864 52.7252 68.3893 53.2905 68.048C53.8665 67.696 54.5438 67.52 55.3225 67.52C56.1438 67.52 56.8425 67.728 57.4185 68.144C57.9945 68.5493 58.3678 69.1627 58.5385 69.984L58.0905 69.808C58.3358 69.1253 58.7678 68.576 59.3865 68.16C60.0158 67.7333 60.7678 67.52 61.6425 67.52ZM73.3793 76V74.144L73.3313 73.84V70.736C73.3313 70.0213 73.1286 69.472 72.7233 69.088C72.3286 68.704 71.7366 68.512 70.9473 68.512C70.4033 68.512 69.8859 68.6027 69.3953 68.784C68.9046 68.9653 68.4886 69.2053 68.1473 69.504L67.6353 68.656C68.0619 68.2933 68.5739 68.016 69.1713 67.824C69.7686 67.6213 70.3979 67.52 71.0593 67.52C72.1473 67.52 72.9846 67.792 73.5713 68.336C74.1686 68.8693 74.4673 69.6853 74.4673 70.784V76H73.3793ZM70.4833 76.08C69.8539 76.08 69.3046 75.9787 68.8353 75.776C68.3766 75.5627 68.0246 75.2747 67.7793 74.912C67.5339 74.5387 67.4113 74.112 67.4113 73.632C67.4113 73.1947 67.5126 72.8 67.7153 72.448C67.9286 72.0853 68.2699 71.7973 68.7393 71.584C69.2193 71.36 69.8593 71.248 70.6593 71.248H73.5553V72.096H70.6913C69.8806 72.096 69.3153 72.24 68.9953 72.528C68.6859 72.816 68.5312 73.1733 68.5312 73.6C68.5312 74.08 68.7179 74.464 69.0913 74.752C69.4646 75.04 69.9873 75.184 70.6593 75.184C71.2993 75.184 71.8486 75.04 72.3073 74.752C72.7766 74.4533 73.1179 74.0267 73.3313 73.472L73.5873 74.256C73.3739 74.8107 73.0006 75.2533 72.4673 75.584C71.9446 75.9147 71.2833 76.08 70.4833 76.08ZM70.0513 66.288L72.2433 64.304H73.7633L71.1713 66.288H70.0513ZM79.8088 76.08C79.1154 76.08 78.4594 75.984 77.8408 75.792C77.2221 75.5893 76.7368 75.3387 76.3848 75.04L76.8968 74.144C77.2381 74.4 77.6754 74.624 78.2088 74.816C78.7421 74.9973 79.3021 75.088 79.8888 75.088C80.6888 75.088 81.2648 74.9653 81.6168 74.72C81.9688 74.464 82.1448 74.128 82.1448 73.712C82.1448 73.4027 82.0434 73.1627 81.8408 72.992C81.6488 72.8107 81.3928 72.6773 81.0728 72.592C80.7528 72.496 80.3954 72.416 80.0008 72.352C79.6061 72.288 79.2114 72.2133 78.8168 72.128C78.4328 72.0427 78.0808 71.92 77.7608 71.76C77.4408 71.5893 77.1794 71.36 76.9768 71.072C76.7848 70.784 76.6888 70.4 76.6888 69.92C76.6888 69.4613 76.8168 69.0507 77.0728 68.688C77.3288 68.3253 77.7021 68.0427 78.1928 67.84C78.6941 67.6267 79.3021 67.52 80.0168 67.52C80.5608 67.52 81.1048 67.5947 81.6488 67.744C82.1928 67.8827 82.6408 68.0693 82.9928 68.304L82.4968 69.216C82.1234 68.96 81.7234 68.7787 81.2968 68.672C80.8701 68.5547 80.4434 68.496 80.0168 68.496C79.2594 68.496 78.6994 68.6293 78.3368 68.896C77.9848 69.152 77.8088 69.4827 77.8088 69.888C77.8088 70.208 77.9048 70.4587 78.0968 70.64C78.2994 70.8213 78.5608 70.9653 78.8808 71.072C79.2114 71.168 79.5688 71.248 79.9528 71.312C80.3474 71.376 80.7368 71.456 81.1208 71.552C81.5154 71.6373 81.8728 71.76 82.1928 71.92C82.5234 72.0693 82.7848 72.288 82.9768 72.576C83.1794 72.8533 83.2808 73.2213 83.2808 73.68C83.2808 74.1707 83.1421 74.5973 82.8648 74.96C82.5981 75.312 82.2034 75.5893 81.6808 75.792C81.1688 75.984 80.5448 76.08 79.8088 76.08Z" fill="white" fill-opacity="0.88"/>
<g filter="url(#filter1_b_1_18)">
<path d="M47.6316 38.7684C47.2275 39.1725 47.2275 39.8276 47.6316 40.2316V40.2316V40.2316C48.0348 39.8272 48.0348 39.1728 47.6316 38.7684V38.7684V38.7684ZM47.6316 40.2316C46.8235 39.4235 45.5133 39.4235 44.7052 40.2316L38.6333 46.3035C38.2293 46.7075 38.2293 47.3626 38.6333 47.7667V47.7667C39.0374 48.1707 39.6925 48.1707 40.0965 47.7667L47.6316 40.2316V40.2316ZM47.6316 38.7684L40.0965 31.2333C39.6925 30.8293 39.0374 30.8293 38.6333 31.2333V31.2333C38.2293 31.6374 38.2293 32.2925 38.6333 32.6965L44.7052 38.7684C45.5133 39.5765 46.8235 39.5765 47.6316 38.7684V38.7684ZM46.9 39.5C46.9 38.9293 46.4374 38.4667 45.8667 38.4667L22.1 38.4667C21.5293 38.4667 21.0667 38.9293 21.0667 39.5V39.5C21.0667 40.0707 21.5293 40.5333 22.1 40.5333L45.8667 40.5333C46.4374 40.5333 46.9 40.0707 46.9 39.5V39.5Z" fill="url(#paint2_linear_1_18)" fill-opacity="0.2"/>
<path d="M44.3516 39.878L44.1964 40.0333L22.1 40.0333C21.8054 40.0333 21.5667 39.7946 21.5667 39.5C21.5667 39.2055 21.8054 38.9667 22.1 38.9667L44.1964 38.9667L44.3516 39.122C44.4994 39.2697 44.6607 39.3958 44.8316 39.5C44.6607 39.6043 44.4994 39.7303 44.3516 39.878ZM45.8667 37.9667L44.6106 37.9667L38.9869 32.343C38.7781 32.1342 38.7781 31.7957 38.9869 31.5869C39.1957 31.3781 39.5342 31.3781 39.743 31.5869L46.1486 37.9925C46.0572 37.9756 45.963 37.9667 45.8667 37.9667ZM45.8667 41.0333C45.963 41.0333 46.0572 41.0245 46.1486 41.0075L39.743 47.4131C39.5342 47.6219 39.1957 47.6219 38.9869 47.4131C38.7781 47.2043 38.7781 46.8658 38.9869 46.657L44.6106 41.0333L45.8667 41.0333Z" stroke="url(#paint3_linear_1_18)"/>
</g>
<defs>
<filter id="filter0_b_1_18" x="-10" y="-10" width="132" height="132" filterUnits="userSpaceOnUse" color-interpolation-filters="sRGB">
<feFlood flood-opacity="0" result="BackgroundImageFix"/>
<feGaussianBlur in="BackgroundImageFix" stdDeviation="5"/>
<feComposite in2="SourceAlpha" operator="in" result="effect1_backgroundBlur_1_18"/>
<feBlend mode="normal" in="SourceGraphic" in2="effect1_backgroundBlur_1_18" result="shape"/>
</filter>
<filter id="filter1_b_1_18" x="11.0667" y="20.9303" width="46.8674" height="37.1394" filterUnits="userSpaceOnUse" color-interpolation-filters="sRGB">
<feFlood flood-opacity="0" result="BackgroundImageFix"/>
<feGaussianBlur in="BackgroundImageFix" stdDeviation="5"/>
<feComposite in2="SourceAlpha" operator="in" result="effect1_backgroundBlur_1_18"/>
<feBlend mode="normal" in="SourceGraphic" in2="effect1_backgroundBlur_1_18" result="shape"/>
</filter>
<linearGradient id="paint0_linear_1_18" x1="31.2828" y1="11.5862" x2="89.9862" y2="100.414" gradientUnits="userSpaceOnUse">
<stop stop-color="#D3E8FF"/>
<stop offset="1" stop-color="#8587BF" stop-opacity="0"/>
</linearGradient>
<linearGradient id="paint1_linear_1_18" x1="48.844" y1="4.47877" x2="102.331" y2="97.027" gradientUnits="userSpaceOnUse">
<stop stop-color="#4A6297" stop-opacity="0.26"/>
<stop offset="0.320882" stop-color="#4A6297"/>
<stop offset="0.610064" stop-color="#74A2CF"/>
<stop offset="1" stop-color="#74A2CF" stop-opacity="0.13"/>
</linearGradient>
<linearGradient id="paint2_linear_1_18" x1="45.5376" y1="35.5284" x2="30.0225" y2="51.0792" gradientUnits="userSpaceOnUse">
<stop stop-color="#D3E8FF"/>
<stop offset="1" stop-color="#8587BF" stop-opacity="0"/>
</linearGradient>
<linearGradient id="paint3_linear_1_18" x1="47.2697" y1="38.3502" x2="30.2548" y2="53.2641" gradientUnits="userSpaceOnUse">
<stop stop-color="#4A6297" stop-opacity="0.26"/>
<stop offset="0.320882" stop-color="#4A6297"/>
<stop offset="0.610064" stop-color="#74A2CF"/>
<stop offset="1" stop-color="#74A2CF" stop-opacity="0.13"/>
</linearGradient>
</defs>
</svg>
