<svg width="27" height="19" viewBox="0 0 27 19" fill="none" xmlns="http://www.w3.org/2000/svg">
<g filter="url(#filter0_b_2555_326)">
<path d="M26.6318 8.76841C26.2277 9.17246 26.2277 9.82756 26.6318 10.2316C27.035 9.82722 27.035 9.17279 26.6318 8.76841ZM26.6318 10.2316C25.8237 9.4235 24.5135 9.4235 23.7054 10.2316L17.6335 16.3035C17.2295 16.7075 17.2295 17.3626 17.6335 17.7667C18.0376 18.1707 18.6927 18.1707 19.0967 17.7667L26.6318 10.2316ZM26.6318 8.76841L19.0967 1.23334C18.6927 0.829288 18.0376 0.829288 17.6335 1.23334C17.2295 1.63739 17.2295 2.29249 17.6335 2.69654L23.7054 8.76841C24.5135 9.57651 25.8237 9.57651 26.6318 8.76841ZM25.9002 9.50001C25.9002 8.92931 25.4376 8.46667 24.8669 8.46667L1.1002 8.46667C0.529503 8.46667 0.0668617 8.92931 0.0668617 9.50001C0.0668617 10.0707 0.529501 10.5333 1.1002 10.5333L24.8669 10.5333C25.4376 10.5333 25.9002 10.0707 25.9002 9.50001Z" fill="url(#paint0_linear_2555_326)" fill-opacity="0.2"/>
<path d="M17.9871 16.657L23.6108 11.0333L24.8669 11.0333C24.9632 11.0333 25.0574 11.0245 25.1488 11.0075L18.7432 17.4131C18.5344 17.6219 18.1959 17.6219 17.9871 17.4131C17.7783 17.2043 17.7783 16.8658 17.9871 16.657ZM18.7432 1.58689L25.1488 7.99254C25.0574 7.97555 24.9632 7.96667 24.8669 7.96667L23.6108 7.96667L17.9871 2.34299C17.7783 2.1342 17.7783 1.79568 17.9871 1.58689C18.1959 1.3781 18.5344 1.3781 18.7432 1.58689ZM1.1002 8.96667L23.1966 8.96667L23.3518 9.12196C23.4996 9.26974 23.6609 9.39575 23.8318 9.5C23.6609 9.60425 23.4996 9.73027 23.3518 9.87805L23.1966 10.0333L1.1002 10.0333C0.805643 10.0333 0.566862 9.79456 0.566862 9.50001C0.566862 9.20546 0.805645 8.96667 1.1002 8.96667Z" stroke="url(#paint1_linear_2555_326)"/>
</g>
<defs>
<filter id="filter0_b_2555_326" x="-9.93359" y="-9.0697" width="46.8682" height="37.1394" filterUnits="userSpaceOnUse" color-interpolation-filters="sRGB">
<feFlood flood-opacity="0" result="BackgroundImageFix"/>
<feGaussianBlur in="BackgroundImageFix" stdDeviation="5"/>
<feComposite in2="SourceAlpha" operator="in" result="effect1_backgroundBlur_2555_326"/>
<feBlend mode="normal" in="SourceGraphic" in2="effect1_backgroundBlur_2555_326" result="shape"/>
</filter>
<linearGradient id="paint0_linear_2555_326" x1="24.5378" y1="5.52836" x2="9.02273" y2="21.0792" gradientUnits="userSpaceOnUse">
<stop stop-color="#D3E8FF"/>
<stop offset="1" stop-color="#8587BF" stop-opacity="0"/>
</linearGradient>
<linearGradient id="paint1_linear_2555_326" x1="26.2698" y1="8.35016" x2="9.25496" y2="23.2641" gradientUnits="userSpaceOnUse">
<stop stop-color="#4A6297" stop-opacity="0.26"/>
<stop offset="0.320882" stop-color="#4A6297"/>
<stop offset="0.610064" stop-color="#74A2CF"/>
<stop offset="1" stop-color="#74A2CF" stop-opacity="0.13"/>
</linearGradient>
</defs>
</svg>
