<svg width="39" height="49" viewBox="0 0 39 49" fill="none" xmlns="http://www.w3.org/2000/svg">
<path d="M0 9.12851V30.4225C0 31.3364 0.7397 32.0761 1.65356 32.0761H9.40075C10.3146 32.0761 11.0543 31.3364 11.0543 30.4225V21.0218H20.0206C20.9345 21.0218 21.6742 20.2821 21.6742 19.3682V11.8289C21.6742 10.915 20.9345 10.1753 20.0206 10.1753H10.8371V1.6566C10.8371 0.207164 9.10674 -0.540027 8.05056 0.452483L0.807116 7.2596C0.292135 7.74462 0 8.42065 0 9.12851Z" fill="url(#paint0_linear_1_33)"/>
<path d="M24.5281 23.5599V34.279H13.5599C12.1461 34.279 11 35.4251 11 36.839V46.1142C11 47.5281 12.1461 48.6742 13.5599 48.6742H17.1723C21.8858 48.6742 26.4082 46.8146 29.7584 43.5019L34.8427 38.4738C37.1948 36.1479 38.5187 32.9775 38.5187 29.6685V23.5599C38.5187 22.1461 37.3727 21 35.9588 21H27.088C25.6742 21 24.5281 22.1461 24.5281 23.5599Z" fill="url(#paint1_linear_1_33)"/>
<defs>
<linearGradient id="paint0_linear_1_33" x1="0" y1="16.0368" x2="21.6723" y2="16.0368" gradientUnits="userSpaceOnUse">
<stop offset="0.04" stop-color="#4A6297"/>
<stop offset="1" stop-color="#74A2CF"/>
</linearGradient>
<linearGradient id="paint1_linear_1_33" x1="11" y1="34.836" x2="38.5164" y2="34.836" gradientUnits="userSpaceOnUse">
<stop offset="0.04" stop-color="#4A6297"/>
<stop offset="1" stop-color="#74A2CF"/>
</linearGradient>
</defs>
</svg>
