<svg width="36" height="38" viewBox="0 0 36 38" fill="none" xmlns="http://www.w3.org/2000/svg">
<path d="M31.7812 8.97251C32.3821 9.31527 32.881 9.81157 33.227 10.4106C33.5729 11.0096 33.7534 11.6898 33.75 12.3815V25.1285C33.75 26.5443 32.9747 27.8498 31.7235 28.5375L19.911 36.01C19.3253 36.3314 18.6681 36.4999 18 36.4999C17.3319 36.4999 16.6747 36.3314 16.089 36.01L4.2765 28.5375C3.6649 28.2022 3.15434 27.7092 2.79794 27.1096C2.44154 26.5101 2.25233 25.826 2.25 25.1285V12.3798C2.25 10.964 3.02525 9.66026 4.2765 8.97251L16.089 2.00751C16.6919 1.67508 17.3692 1.50073 18.0577 1.50073C18.7463 1.50073 19.4236 1.67508 20.0265 2.00751L31.839 8.97251H31.7812Z" stroke="url(#paint0_linear_2477_1291)" stroke-width="3" stroke-linecap="round" stroke-linejoin="round"/>
<path d="M24.125 14.4886C24.671 14.8036 25.0053 15.3899 25 16.0216V21.7564C25 22.3934 24.6553 22.9814 24.0988 23.2911L18.8488 26.6546C18.589 26.7986 18.297 26.8742 18 26.8742C17.703 26.8742 17.411 26.7986 17.1513 26.6546L11.9013 23.2911C11.6278 23.1394 11.3999 22.9172 11.2414 22.6476C11.0829 22.378 10.9995 22.0708 11 21.7581V16.0216C11 15.3846 11.3448 14.7966 11.8995 14.4869L17.1495 11.3544C17.6938 11.0499 18.357 11.0499 18.8995 11.3544L24.1495 14.4869H24.125V14.4886Z" stroke="url(#paint1_linear_2477_1291)" stroke-width="3" stroke-linecap="round" stroke-linejoin="round"/>
<defs>
<linearGradient id="paint0_linear_2477_1291" x1="2.25" y1="18.9989" x2="33.7473" y2="18.9989" gradientUnits="userSpaceOnUse">
<stop offset="0.04" stop-color="#4A6297"/>
<stop offset="1" stop-color="#74A2CF"/>
</linearGradient>
<linearGradient id="paint1_linear_2477_1291" x1="11" y1="18.9995" x2="24.9989" y2="18.9995" gradientUnits="userSpaceOnUse">
<stop offset="0.04" stop-color="#4A6297"/>
<stop offset="1" stop-color="#74A2CF"/>
</linearGradient>
</defs>
</svg>
