<svg width="34" height="36" viewBox="0 0 34 36" fill="none" xmlns="http://www.w3.org/2000/svg">
<path d="M7.5 32C7.5 31.0717 7.13125 30.1815 6.47487 29.5251C5.8185 28.8687 4.92826 28.5 4 28.5C3.07174 28.5 2.1815 28.8687 1.52513 29.5251C0.868749 30.1815 0.5 31.0717 0.5 32C0.5 32.9283 0.868749 33.8185 1.52513 34.4749C2.1815 35.1313 3.07174 35.5 4 35.5C4.92826 35.5 5.8185 35.1313 6.47487 34.4749C7.13125 33.8185 7.5 32.9283 7.5 32ZM25 4C25 3.07174 24.6313 2.1815 23.9749 1.52513C23.3185 0.868749 22.4283 0.5 21.5 0.5C20.5717 0.5 19.6815 0.868749 19.0251 1.52513C18.3687 2.1815 18 3.07174 18 4C18 4.92826 18.3687 5.8185 19.0251 6.47487C19.6815 7.13125 20.5717 7.5 21.5 7.5C22.4283 7.5 23.3185 7.13125 23.9749 6.47487C24.6313 5.8185 25 4.92826 25 4ZM25 32C25 31.0717 24.6313 30.1815 23.9749 29.5251C23.3185 28.8687 22.4283 28.5 21.5 28.5C20.5717 28.5 19.6815 28.8687 19.0251 29.5251C18.3687 30.1815 18 31.0717 18 32C18 32.9283 18.3687 33.8185 19.0251 34.4749C19.6815 35.1313 20.5717 35.5 21.5 35.5C22.4283 35.5 23.3185 35.1313 23.9749 34.4749C24.6313 33.8185 25 32.9283 25 32ZM16.25 18C16.25 17.0717 15.8813 16.1815 15.2249 15.5251C14.5685 14.8687 13.6783 14.5 12.75 14.5C11.8217 14.5 10.9315 14.8687 10.2751 15.5251C9.61875 16.1815 9.25 17.0717 9.25 18C9.25 18.9283 9.61875 19.8185 10.2751 20.4749C10.9315 21.1313 11.8217 21.5 12.75 21.5C13.6783 21.5 14.5685 21.1313 15.2249 20.4749C15.8813 19.8185 16.25 18.9283 16.25 18ZM33.75 18C33.75 17.0717 33.3813 16.1815 32.7249 15.5251C32.0685 14.8687 31.1783 14.5 30.25 14.5C29.3217 14.5 28.4315 14.8687 27.7751 15.5251C27.1187 16.1815 26.75 17.0717 26.75 18C26.75 18.9283 27.1187 19.8185 27.7751 20.4749C28.4315 21.1313 29.3217 21.5 30.25 21.5C31.1783 21.5 32.0685 21.1313 32.7249 20.4749C33.3813 19.8185 33.75 18.9283 33.75 18ZM5.8515 29.0355L10.8915 20.975ZM14.6067 15.0303L19.6415 6.97325ZM14.6137 20.9837L19.6467 29.0338ZM23.3602 6.975L28.402 15.0425Z" fill="url(#paint0_linear_2477_1323)"/>
<defs>
<linearGradient id="paint0_linear_2477_1323" x1="0.5" y1="17.9986" x2="33.7471" y2="17.9986" gradientUnits="userSpaceOnUse">
<stop offset="0.04" stop-color="#4A6297"/>
<stop offset="1" stop-color="#74A2CF"/>
</linearGradient>
</defs>
</svg>
