<svg width="36" height="36" viewBox="0 0 36 36" fill="none" xmlns="http://www.w3.org/2000/svg">
<path d="M18 33.75V33.7675M2.25 12.75V12.7675M33.75 12.75V12.7675M11 32.175C8.61185 31.0102 6.55721 29.2601 5.02731 27.0876C3.49742 24.9152 2.54201 22.391 2.25 19.75M25 32.175C27.3882 31.0102 29.4428 29.2601 30.9727 27.0876C32.5026 24.9152 33.458 22.391 33.75 19.75M7.85 5.75C10.6642 3.44693 14.1886 2.1886 17.825 2.1886C21.4614 2.1886 24.9858 3.44693 27.8 5.75M12.75 18C12.75 19.3924 13.3031 20.7277 14.2877 21.7123C15.2723 22.6969 16.6076 23.25 18 23.25C19.3924 23.25 20.7277 22.6969 21.7123 21.7123C22.6969 20.7277 23.25 19.3924 23.25 18C23.25 16.6076 22.6969 15.2723 21.7123 14.2877C20.7277 13.3031 19.3924 12.75 18 12.75C16.6076 12.75 15.2723 13.3031 14.2877 14.2877C13.3031 15.2723 12.75 16.6076 12.75 18Z" stroke="url(#paint0_linear_2450_309)" stroke-width="3" stroke-linecap="round" stroke-linejoin="round"/>
<defs>
<linearGradient id="paint0_linear_2450_309" x1="18" y1="2.1886" x2="18" y2="33.7675" gradientUnits="userSpaceOnUse">
<stop stop-color="#3F3A86"/>
<stop offset="1" stop-color="#6484CB"/>
</linearGradient>
</defs>
</svg>
